{
    "asset" : {
        "generator" : "Khronos glTF Blender I/O v1.7.33",
        "version" : "2.0"
    },
    "scene" : 0,
    "scenes" : [
        {
            "name" : "Scene",
            "nodes" : [
                0
            ]
        }
    ],
    "nodes" : [
        {
            "mesh" : 0,
            "name" : "Props_Crate"
        }
    ],
    "materials" : [
        {
            "doubleSided" : true,
            "name" : "Accent",
            "pbrMetallicRoughness" : {
                "baseColorFactor" : [
                    0.559592604637146,
                    0.29767245054244995,
                    0.06678982824087143,
                    1
                ],
                "metallicFactor" : 0,
                "roughnessFactor" : 0.5
            }
        },
        {
            "doubleSided" : true,
            "name" : "DarkGrey",
            "pbrMetallicRoughness" : {
                "baseColorFactor" : [
                    0.23954731225967407,
                    0.23954731225967407,
                    0.23954731225967407,
                    1
                ],
                "metallicFactor" : 0,
                "roughnessFactor" : 0.5
            }
        },
        {
            "doubleSided" : true,
            "name" : "DarkAccent",
            "pbrMetallicRoughness" : {
                "baseColorFactor" : [
                    0.226578950881958,
                    0.12337818741798401,
                    0.030147360637784004,
                    1
                ],
                "metallicFactor" : 0,
                "roughnessFactor" : 0.5
            }
        },
        {
            "doubleSided" : true,
            "name" : "Black",
            "pbrMetallicRoughness" : {
                "baseColorFactor" : [
                    0.04202548414468765,
                    0.04202548414468765,
                    0.04202548414468765,
                    1
                ],
                "metallicFactor" : 0,
                "roughnessFactor" : 0.5
            }
        }
    ],
    "meshes" : [
        {
            "name" : "Cube",
            "primitives" : [
                {
                    "attributes" : {
                        "POSITION" : 0,
                        "NORMAL" : 1
                    },
                    "indices" : 2
                },
                {
                    "attributes" : {
                        "POSITION" : 3,
                        "NORMAL" : 4
                    },
                    "indices" : 5,
                    "material" : 0
                },
                {
                    "attributes" : {
                        "POSITION" : 6,
                        "NORMAL" : 7
                    },
                    "indices" : 8,
                    "material" : 1
                },
                {
                    "attributes" : {
                        "POSITION" : 9,
                        "NORMAL" : 10
                    },
                    "indices" : 11,
                    "material" : 2
                },
                {
                    "attributes" : {
                        "POSITION" : 12,
                        "NORMAL" : 13
                    },
                    "indices" : 14,
                    "material" : 3
                }
            ]
        }
    ],
    "accessors" : [
        {
            "bufferView" : 0,
            "componentType" : 5126,
            "count" : 1994,
            "max" : [
                0.39855846762657166,
                0.7980011105537415,
                0.39855846762657166
            ],
            "min" : [
                -0.39855846762657166,
                0.0008841753005981445,
                -0.39855846762657166
            ],
            "type" : "VEC3"
        },
        {
            "bufferView" : 1,
            "componentType" : 5126,
            "count" : 1994,
            "type" : "VEC3"
        },
        {
            "bufferView" : 2,
            "componentType" : 5123,
            "count" : 3132,
            "type" : "SCALAR"
        },
        {
            "bufferView" : 3,
            "componentType" : 5126,
            "count" : 732,
            "max" : [
                0.390243262052536,
                0.7865122556686401,
                0.3902457654476166
            ],
            "min" : [
                -0.390243262052536,
                0.012373000383377075,
                -0.3902408182621002
            ],
            "type" : "VEC3"
        },
        {
            "bufferView" : 4,
            "componentType" : 5126,
            "count" : 732,
            "type" : "VEC3"
        },
        {
            "bufferView" : 5,
            "componentType" : 5123,
            "count" : 1128,
            "type" : "SCALAR"
        },
        {
            "bufferView" : 6,
            "componentType" : 5126,
            "count" : 88,
            "max" : [
                0.3717726767063141,
                0.5959519147872925,
                0.3717963397502899
            ],
            "min" : [
                -0.3717726767063141,
                0.20293334126472473,
                -0.37174901366233826
            ],
            "type" : "VEC3"
        },
        {
            "bufferView" : 7,
            "componentType" : 5126,
            "count" : 88,
            "type" : "VEC3"
        },
        {
            "bufferView" : 8,
            "componentType" : 5123,
            "count" : 144,
            "type" : "SCALAR"
        },
        {
            "bufferView" : 9,
            "componentType" : 5126,
            "count" : 2336,
            "max" : [
                0.35960474610328674,
                0.8022168278694153,
                0.3596048057079315
            ],
            "min" : [
                -0.3596048355102539,
                -0.0033315420150756836,
                -0.3596048057079315
            ],
            "type" : "VEC3"
        },
        {
            "bufferView" : 10,
            "componentType" : 5126,
            "count" : 2336,
            "type" : "VEC3"
        },
        {
            "bufferView" : 11,
            "componentType" : 5123,
            "count" : 3504,
            "type" : "SCALAR"
        },
        {
            "bufferView" : 12,
            "componentType" : 5126,
            "count" : 64,
            "max" : [
                0.33815622329711914,
                0.7695455551147461,
                0.3381562829017639
            ],
            "min" : [
                -0.3381563127040863,
                0.029339700937271118,
                -0.3381562829017639
            ],
            "type" : "VEC3"
        },
        {
            "bufferView" : 13,
            "componentType" : 5126,
            "count" : 64,
            "type" : "VEC3"
        },
        {
            "bufferView" : 14,
            "componentType" : 5123,
            "count" : 156,
            "type" : "SCALAR"
        }
    ],
    "bufferViews" : [
        {
            "buffer" : 0,
            "byteLength" : 23928,
            "byteOffset" : 0
        },
        {
            "buffer" : 0,
            "byteLength" : 23928,
            "byteOffset" : 23928
        },
        {
            "buffer" : 0,
            "byteLength" : 6264,
            "byteOffset" : 47856
        },
        {
            "buffer" : 0,
            "byteLength" : 8784,
            "byteOffset" : 54120
        },
        {
            "buffer" : 0,
            "byteLength" : 8784,
            "byteOffset" : 62904
        },
        {
            "buffer" : 0,
            "byteLength" : 2256,
            "byteOffset" : 71688
        },
        {
            "buffer" : 0,
            "byteLength" : 1056,
            "byteOffset" : 73944
        },
        {
            "buffer" : 0,
            "byteLength" : 1056,
            "byteOffset" : 75000
        },
        {
            "buffer" : 0,
            "byteLength" : 288,
            "byteOffset" : 76056
        },
        {
            "buffer" : 0,
            "byteLength" : 28032,
            "byteOffset" : 76344
        },
        {
            "buffer" : 0,
            "byteLength" : 28032,
            "byteOffset" : 104376
        },
        {
            "buffer" : 0,
            "byteLength" : 7008,
            "byteOffset" : 132408
        },
        {
            "buffer" : 0,
            "byteLength" : 768,
            "byteOffset" : 139416
        },
        {
            "buffer" : 0,
            "byteLength" : 768,
            "byteOffset" : 140184
        },
        {
            "buffer" : 0,
            "byteLength" : 312,
            "byteOffset" : 140952
        }
    ],
    "buffers" : [
        {
            "byteLength" : 141264,
            "uri" : "data:application/octet-stream;base64,"
        }
    ]
}
