{
    "asset" : {
        "generator" : "Khronos glTF Blender I/O v1.7.33",
        "version" : "2.0"
    },
    "scene" : 0,
    "scenes" : [
        {
            "name" : "Scene",
            "nodes" : [
                2
            ]
        }
    ],
    "nodes" : [
        {
            "mesh" : 0,
            "name" : "Cannon",
            "scale" : [
                2.4140303134918213,
                2.4140303134918213,
                2.4140303134918213
            ],
            "translation" : [
                0.9157791137695312,
                -0.017061710357666016,
                -0.054587095975875854
            ]
        },
        {
            "mesh" : 1,
            "name" : "Cannon.001",
            "scale" : [
                -2.4140303134918213,
                2.4140303134918213,
                2.4140303134918213
            ],
            "translation" : [
                -0.784220814704895,
                -0.017061710357666016,
                -0.054587095975875854
            ]
        },
        {
            "children" : [
                0,
                1
            ],
            "name" : "CannonRoot"
        }
    ],
    "materials" : [
        {
            "doubleSided" : true,
            "name" : "Black",
            "pbrMetallicRoughness" : {
                "baseColorFactor" : [
                    0.023649556562304497,
                    0.023649556562304497,
                    0.023649556562304497,
                    1
                ],
                "metallicFactor" : 0,
                "roughnessFactor" : 0.5
            }
        }
    ],
    "meshes" : [
        {
            "name" : "Cylinder.010",
            "primitives" : [
                {
                    "attributes" : {
                        "POSITION" : 0,
                        "NORMAL" : 1,
                        "TEXCOORD_0" : 2
                    },
                    "indices" : 3,
                    "material" : 0
                }
            ]
        },
        {
            "name" : "Cylinder.011",
            "primitives" : [
                {
                    "attributes" : {
                        "POSITION" : 4,
                        "NORMAL" : 5,
                        "TEXCOORD_0" : 6
                    },
                    "indices" : 3,
                    "material" : 0
                }
            ]
        }
    ],
    "accessors" : [
        {
            "bufferView" : 0,
            "componentType" : 5126,
            "count" : 1461,
            "max" : [
                0.3303414285182953,
                0.15583395957946777,
                0.8689985275268555
            ],
            "min" : [
                -0.07048612833023071,
                -0.1572648584842682,
                -0.36099469661712646
            ],
            "type" : "VEC3"
        },
        {
            "bufferView" : 1,
            "componentType" : 5126,
            "count" : 1461,
            "type" : "VEC3"
        },
        {
            "bufferView" : 2,
            "componentType" : 5126,
            "count" : 1461,
            "type" : "VEC2"
        },
        {
            "bufferView" : 3,
            "componentType" : 5123,
            "count" : 2256,
            "type" : "SCALAR"
        },
        {
            "bufferView" : 4,
            "componentType" : 5126,
            "count" : 1461,
            "max" : [
                0.3303414285182953,
                0.15583395957946777,
                0.8689985275268555
            ],
            "min" : [
                -0.07048612833023071,
                -0.1572648584842682,
                -0.36099469661712646
            ],
            "type" : "VEC3"
        },
        {
            "bufferView" : 5,
            "componentType" : 5126,
            "count" : 1461,
            "type" : "VEC3"
        },
        {
            "bufferView" : 6,
            "componentType" : 5126,
            "count" : 1461,
            "type" : "VEC2"
        }
    ],
    "bufferViews" : [
        {
            "buffer" : 0,
            "byteLength" : 17532,
            "byteOffset" : 0
        },
        {
            "buffer" : 0,
            "byteLength" : 17532,
            "byteOffset" : 17532
        },
        {
            "buffer" : 0,
            "byteLength" : 11688,
            "byteOffset" : 35064
        },
        {
            "buffer" : 0,
            "byteLength" : 4512,
            "byteOffset" : 46752
        },
        {
            "buffer" : 0,
            "byteLength" : 17532,
            "byteOffset" : 51264
        },
        {
            "buffer" : 0,
            "byteLength" : 17532,
            "byteOffset" : 68796
        },
        {
            "buffer" : 0,
            "byteLength" : 11688,
            "byteOffset" : 86328
        }
    ],
    "buffers" : [
        {
            "byteLength" : 98016,
            "uri" : "data:application/octet-stream;base64,"
        }
    ]
}
