{
    "asset" : {
        "generator" : "Khronos glTF Blender I/O v1.7.33",
        "version" : "2.0"
    },
    "scene" : 0,
    "scenes" : [
        {
            "name" : "Scene",
            "nodes" : [
                2
            ]
        }
    ],
    "nodes" : [
        {
            "mesh" : 0,
            "name" : "Rocket.001",
            "scale" : [
                -2.4140303134918213,
                2.4140303134918213,
                2.4140303134918213
            ],
            "translation" : [
                -0.7850173711776733,
                -0.23335742950439453,
                -0.4487326443195343
            ]
        },
        {
            "mesh" : 1,
            "name" : "Rocket.002",
            "scale" : [
                2.4140303134918213,
                2.4140303134918213,
                2.4140303134918213
            ],
            "translation" : [
                0.7149825692176819,
                -0.23335742950439453,
                -0.4487326443195343
            ]
        },
        {
            "children" : [
                0,
                1
            ],
            "name" : "RocketRoot",
            "translation" : [
                0.08287090808153152,
                0.003267049789428711,
                -0.13875730335712433
            ]
        }
    ],
    "materials" : [
        {
            "doubleSided" : true,
            "name" : "Black",
            "pbrMetallicRoughness" : {
                "baseColorFactor" : [
                    0.023649556562304497,
                    0.023649556562304497,
                    0.023649556562304497,
                    1
                ],
                "metallicFactor" : 0,
                "roughnessFactor" : 0.5
            }
        }
    ],
    "meshes" : [
        {
            "name" : "Cylinder.003",
            "primitives" : [
                {
                    "attributes" : {
                        "POSITION" : 0,
                        "NORMAL" : 1,
                        "TEXCOORD_0" : 2
                    },
                    "indices" : 3,
                    "material" : 0
                }
            ]
        },
        {
            "name" : "Cylinder.004",
            "primitives" : [
                {
                    "attributes" : {
                        "POSITION" : 4,
                        "NORMAL" : 5,
                        "TEXCOORD_0" : 6
                    },
                    "indices" : 3,
                    "material" : 0
                }
            ]
        }
    ],
    "accessors" : [
        {
            "bufferView" : 0,
            "componentType" : 5126,
            "count" : 1813,
            "max" : [
                0.4040336012840271,
                0.18116845190525055,
                0.7864561080932617
            ],
            "min" : [
                -0.07048612833023071,
                -0.1998133361339569,
                -0.43194642663002014
            ],
            "type" : "VEC3"
        },
        {
            "bufferView" : 1,
            "componentType" : 5126,
            "count" : 1813,
            "type" : "VEC3"
        },
        {
            "bufferView" : 2,
            "componentType" : 5126,
            "count" : 1813,
            "type" : "VEC2"
        },
        {
            "bufferView" : 3,
            "componentType" : 5123,
            "count" : 2856,
            "type" : "SCALAR"
        },
        {
            "bufferView" : 4,
            "componentType" : 5126,
            "count" : 1813,
            "max" : [
                0.4040336012840271,
                0.18116845190525055,
                0.7864561080932617
            ],
            "min" : [
                -0.07048612833023071,
                -0.1998133361339569,
                -0.43194642663002014
            ],
            "type" : "VEC3"
        },
        {
            "bufferView" : 5,
            "componentType" : 5126,
            "count" : 1813,
            "type" : "VEC3"
        },
        {
            "bufferView" : 6,
            "componentType" : 5126,
            "count" : 1813,
            "type" : "VEC2"
        }
    ],
    "bufferViews" : [
        {
            "buffer" : 0,
            "byteLength" : 21756,
            "byteOffset" : 0
        },
        {
            "buffer" : 0,
            "byteLength" : 21756,
            "byteOffset" : 21756
        },
        {
            "buffer" : 0,
            "byteLength" : 14504,
            "byteOffset" : 43512
        },
        {
            "buffer" : 0,
            "byteLength" : 5712,
            "byteOffset" : 58016
        },
        {
            "buffer" : 0,
            "byteLength" : 21756,
            "byteOffset" : 63728
        },
        {
            "buffer" : 0,
            "byteLength" : 21756,
            "byteOffset" : 85484
        },
        {
            "buffer" : 0,
            "byteLength" : 14504,
            "byteOffset" : 107240
        }
    ],
    "buffers" : [
        {
            "byteLength" : 121744,
            "uri" : "data:application/octet-stream;base64,"
        }
    ]
}
