{
    "asset" : {
        "generator" : "Khronos glTF Blender I/O v1.7.33",
        "version" : "2.0"
    },
    "scene" : 0,
    "scenes" : [
        {
            "name" : "Scene",
            "nodes" : [
                2
            ]
        }
    ],
    "nodes" : [
        {
            "mesh" : 0,
            "name" : "Flame",
            "rotation" : [
                -0.9970712661743164,
                0,
                0,
                0.07647927105426788
            ],
            "scale" : [
                -2.4140303134918213,
                -2.4140303134918213,
                -2.4140303134918213
            ],
            "translation" : [
                -0.7916016578674316,
                -0.31667470932006836,
                -0.46456483006477356
            ]
        },
        {
            "mesh" : 1,
            "name" : "Flame.001",
            "rotation" : [
                0.07647925615310669,
                0,
                0,
                0.9970712661743164
            ],
            "scale" : [
                2.4140303134918213,
                2.4140303134918213,
                2.4140303134918213
            ],
            "translation" : [
                0.9155571460723877,
                -0.31667470932006836,
                -0.46456488966941833
            ]
        },
        {
            "children" : [
                0,
                1
            ],
            "name" : "FlameRoot"
        }
    ],
    "materials" : [
        {
            "doubleSided" : true,
            "name" : "Black",
            "pbrMetallicRoughness" : {
                "baseColorFactor" : [
                    0.023649556562304497,
                    0.023649556562304497,
                    0.023649556562304497,
                    1
                ],
                "metallicFactor" : 0,
                "roughnessFactor" : 0.5
            }
        }
    ],
    "meshes" : [
        {
            "name" : "Cylinder.007",
            "primitives" : [
                {
                    "attributes" : {
                        "POSITION" : 0,
                        "NORMAL" : 1,
                        "TEXCOORD_0" : 2
                    },
                    "indices" : 3,
                    "material" : 0
                }
            ]
        },
        {
            "name" : "Cylinder.005",
            "primitives" : [
                {
                    "attributes" : {
                        "POSITION" : 4,
                        "NORMAL" : 5,
                        "TEXCOORD_0" : 6
                    },
                    "indices" : 3,
                    "material" : 0
                }
            ]
        }
    ],
    "accessors" : [
        {
            "bufferView" : 0,
            "componentType" : 5126,
            "count" : 1450,
            "max" : [
                0.376517653465271,
                0.1678706556558609,
                0.9853271245956421
            ],
            "min" : [
                -0.07048612833023071,
                -0.3751569092273712,
                -0.6072301864624023
            ],
            "type" : "VEC3"
        },
        {
            "bufferView" : 1,
            "componentType" : 5126,
            "count" : 1450,
            "type" : "VEC3"
        },
        {
            "bufferView" : 2,
            "componentType" : 5126,
            "count" : 1450,
            "type" : "VEC2"
        },
        {
            "bufferView" : 3,
            "componentType" : 5123,
            "count" : 2220,
            "type" : "SCALAR"
        },
        {
            "bufferView" : 4,
            "componentType" : 5126,
            "count" : 1450,
            "max" : [
                0.376517653465271,
                0.1678706556558609,
                0.9853271245956421
            ],
            "min" : [
                -0.07048612833023071,
                -0.3751569092273712,
                -0.6072301864624023
            ],
            "type" : "VEC3"
        },
        {
            "bufferView" : 5,
            "componentType" : 5126,
            "count" : 1450,
            "type" : "VEC3"
        },
        {
            "bufferView" : 6,
            "componentType" : 5126,
            "count" : 1450,
            "type" : "VEC2"
        }
    ],
    "bufferViews" : [
        {
            "buffer" : 0,
            "byteLength" : 17400,
            "byteOffset" : 0
        },
        {
            "buffer" : 0,
            "byteLength" : 17400,
            "byteOffset" : 17400
        },
        {
            "buffer" : 0,
            "byteLength" : 11600,
            "byteOffset" : 34800
        },
        {
            "buffer" : 0,
            "byteLength" : 4440,
            "byteOffset" : 46400
        },
        {
            "buffer" : 0,
            "byteLength" : 17400,
            "byteOffset" : 50840
        },
        {
            "buffer" : 0,
            "byteLength" : 17400,
            "byteOffset" : 68240
        },
        {
            "buffer" : 0,
            "byteLength" : 11600,
            "byteOffset" : 85640
        }
    ],
    "buffers" : [
        {
            "byteLength" : 97240,
            "uri" : "data:application/octet-stream;base64,"
        }
    ]
}
