{
    "asset" : {
        "generator" : "Khronos glTF Blender I/O v1.7.33",
        "version" : "2.0"
    },
    "scene" : 0,
    "scenes" : [
        {
            "name" : "Scene",
            "nodes" : [
                2
            ]
        }
    ],
    "nodes" : [
        {
            "mesh" : 0,
            "name" : "Gatling",
            "rotation" : [
                0,
                0,
                0.9990482330322266,
                -0.04361942410469055
            ],
            "scale" : [
                2.4140303134918213,
                2.4140303134918213,
                2.4140303134918213
            ],
            "translation" : [
                -0.7912344336509705,
                -0.2263331413269043,
                -0.3519657254219055
            ]
        },
        {
            "mesh" : 1,
            "name" : "Gatling.001",
            "rotation" : [
                0,
                0,
                0.9996861815452576,
                0.025051550939679146
            ],
            "scale" : [
                -2.4140303134918213,
                2.4140303134918213,
                2.4140303134918213
            ],
            "translation" : [
                0.9341514110565186,
                -0.2263336181640625,
                -0.3519657254219055
            ]
        },
        {
            "children" : [
                0,
                1
            ],
            "name" : "GatlingRoot"
        }
    ],
    "materials" : [
        {
            "doubleSided" : true,
            "name" : "Black",
            "pbrMetallicRoughness" : {
                "baseColorFactor" : [
                    0.023649556562304497,
                    0.023649556562304497,
                    0.023649556562304497,
                    1
                ],
                "metallicFactor" : 0,
                "roughnessFactor" : 0.5
            }
        }
    ],
    "meshes" : [
        {
            "name" : "Cylinder.002",
            "primitives" : [
                {
                    "attributes" : {
                        "POSITION" : 0,
                        "NORMAL" : 1,
                        "TEXCOORD_0" : 2
                    },
                    "indices" : 3,
                    "material" : 0
                }
            ]
        },
        {
            "name" : "Cylinder.009",
            "primitives" : [
                {
                    "attributes" : {
                        "POSITION" : 4,
                        "NORMAL" : 5,
                        "TEXCOORD_0" : 6
                    },
                    "indices" : 3,
                    "material" : 0
                }
            ]
        }
    ],
    "accessors" : [
        {
            "bufferView" : 0,
            "componentType" : 5126,
            "count" : 2082,
            "max" : [
                0.37843912839889526,
                0.1601061224937439,
                0.9926921129226685
            ],
            "min" : [
                -0.07048612833023071,
                -0.3019867241382599,
                -0.3752005398273468
            ],
            "type" : "VEC3"
        },
        {
            "bufferView" : 1,
            "componentType" : 5126,
            "count" : 2082,
            "type" : "VEC3"
        },
        {
            "bufferView" : 2,
            "componentType" : 5126,
            "count" : 2082,
            "type" : "VEC2"
        },
        {
            "bufferView" : 3,
            "componentType" : 5123,
            "count" : 3324,
            "type" : "SCALAR"
        },
        {
            "bufferView" : 4,
            "componentType" : 5126,
            "count" : 2082,
            "max" : [
                0.37843912839889526,
                0.1601061224937439,
                0.9926921129226685
            ],
            "min" : [
                -0.07048612833023071,
                -0.3019867241382599,
                -0.3752005398273468
            ],
            "type" : "VEC3"
        },
        {
            "bufferView" : 5,
            "componentType" : 5126,
            "count" : 2082,
            "type" : "VEC3"
        },
        {
            "bufferView" : 6,
            "componentType" : 5126,
            "count" : 2082,
            "type" : "VEC2"
        }
    ],
    "bufferViews" : [
        {
            "buffer" : 0,
            "byteLength" : 24984,
            "byteOffset" : 0
        },
        {
            "buffer" : 0,
            "byteLength" : 24984,
            "byteOffset" : 24984
        },
        {
            "buffer" : 0,
            "byteLength" : 16656,
            "byteOffset" : 49968
        },
        {
            "buffer" : 0,
            "byteLength" : 6648,
            "byteOffset" : 66624
        },
        {
            "buffer" : 0,
            "byteLength" : 24984,
            "byteOffset" : 73272
        },
        {
            "buffer" : 0,
            "byteLength" : 24984,
            "byteOffset" : 98256
        },
        {
            "buffer" : 0,
            "byteLength" : 16656,
            "byteOffset" : 123240
        }
    ],
    "buffers" : [
        {
            "byteLength" : 139896,
            "uri" : "data:application/octet-stream;base64,"
        }
    ]
}
